<?xml version="1.0" encoding="UTF-8"?>
<svg xmlns="http://www.w3.org/2000/svg" id="Economic_Crisis" data-name="Economic Crisis" viewBox="0 0 64 64" width="512" height="512"><path d="M24,23A11,11,0,1,0,35,34,11.007,11.007,0,0,0,24,23Zm0,20a9,9,0,1,1,9-9A9.014,9.014,0,0,1,24,43Z"/><path d="M61.91,43.59A1,1,0,0,0,61,43H53V3a1,1,0,0,0-1-1H40a1,1,0,0,0-1,1V22.6a29.366,29.366,0,0,0-4.91-5.46A2.967,2.967,0,0,0,35,15a3,3,0,0,0-1.64-2.66l1.61-7.12a.977.977,0,0,0-.19-.84A1,1,0,0,0,34,4a4.658,4.658,0,0,1-2.82-.86,7.054,7.054,0,0,0-7.69,0A4.658,4.658,0,0,1,20.67,4a4.69,4.69,0,0,1-2.83-.86A6.617,6.617,0,0,0,14,2a.985.985,0,0,0-.79.39,1.01,1.01,0,0,0-.18.87l2.35,8.81a2.994,2.994,0,0,0-1.47,5.08C6.52,23.4,2,35.14,2,43,2,56,13.18,56,24,56c5.82,0,10.96-.14,14.84-1.6l6.41,7.26a1,1,0,0,0,1.5,0l15-17A1,1,0,0,0,61.91,43.59ZM15.34,4.16a5.588,5.588,0,0,1,1.48.7A6.628,6.628,0,0,0,20.67,6a6.617,6.617,0,0,0,3.84-1.14,5.07,5.07,0,0,1,5.65,0,6.757,6.757,0,0,0,2.61,1.05L31.38,12h-1.2l.81-4.84-1.98-.32L28.15,12H21.82l-.84-4.2-1.96.4.76,3.8H17.43ZM16,14H32a1,1,0,0,1,0,2l-16.1-.02A.989.989,0,0,1,15,15,1,1,0,0,1,16,14Zm8,40C11.56,54,4,53.26,4,43c0-7.7,4.59-19.35,12.03-25H31.97A28.233,28.233,0,0,1,39,26.32V43H31a1,1,0,0,0-.75,1.66l7.17,8.13C33.93,53.9,29.25,54,24,54Zm22,5.49L33.22,45H40a1,1,0,0,0,1-1V4H51V44a1,1,0,0,0,1,1h6.78Z"/><path d="M27,32V31a1,1,0,0,0-1-1H22a1,1,0,0,0-1,1v1a1,1,0,0,0,1,1h4a3.009,3.009,0,0,1,3,3v1a3.009,3.009,0,0,1-3,3H25v1H23V40H22a3.009,3.009,0,0,1-3-3h2a1,1,0,0,0,1,1h4a1,1,0,0,0,1-1V36a1,1,0,0,0-1-1H22a3.009,3.009,0,0,1-3-3V31a3.009,3.009,0,0,1,3-3h1V27h2v1h1a3.009,3.009,0,0,1,3,3v1Z"/></svg>
